<svg xmlns="http://www.w3.org/2000/svg" xmlns:xlink="http://www.w3.org/1999/xlink" width="234.895" height="120" viewBox="0 0 62.149 31.75"><defs><linearGradient xlink:href="#a" id="e" x1="-18.029" x2="-9.422" y1="86.796" y2="62.007" gradientTransform="matrix(.06354 0 0 .0376 390.751 556.481)" gradientUnits="userSpaceOnUse"/><linearGradient id="a"><stop offset="0" style="stop-color:#b6ff62;stop-opacity:1"/><stop offset="1" style="stop-color:#ffe653;stop-opacity:1"/></linearGradient><linearGradient xlink:href="#b" id="f" x1="-28.857" x2="-55.861" y1="45.31" y2="31.308" gradientTransform="matrix(.06354 0 0 .0376 390.751 556.481)" gradientUnits="userSpaceOnUse"/><linearGradient id="b"><stop offset="0" style="stop-color:#ffc526;stop-opacity:1"/><stop offset="1" style="stop-color:#ffe653;stop-opacity:.98433423"/></linearGradient><linearGradient xlink:href="#c" id="g" x1="-99.738" x2="-157.321" y1="18.294" y2="13.947" gradientTransform="matrix(.06354 0 0 .0376 390.751 556.481)" gradientUnits="userSpaceOnUse"/><linearGradient id="c"><stop offset="0" style="stop-color:#ffc016;stop-opacity:1"/><stop offset="1" style="stop-color:#fff468;stop-opacity:1"/></linearGradient><linearGradient id="d"><stop offset="0" style="stop-color:#0a458e;stop-opacity:.21148825"/><stop offset="1" style="stop-color:#0a0c35;stop-opacity:0"/></linearGradient><radialGradient xlink:href="#d" id="h" cx="54.618" cy="256.747" r="10.291" fx="54.618" fy="256.747" gradientTransform="matrix(.3645 0 0 .04098 102.826 234.7)" gradientUnits="userSpaceOnUse"/></defs><path d="M120.882 242.508c.263.455 1.038 1.339 1.393 1.774.035.045 1.447-.367 1.765-.461-.855-.74-2.229-1.134-3.158-1.313zM122.482 240.437c1.743.16 4.492.854 5.168 2.386.564-.155 1.127-.37 1.778-.58-.115-1.824-4.332-2.395-4.91-2.449-.697.22-1.348.441-2.036.643z" style="opacity:.998;fill:#0ff;fill-opacity:1;stroke:#0ff;stroke-width:.0381979;stroke-linecap:round;stroke-linejoin:round;stroke-opacity:1" transform="translate(-111.992 -212.864) scale(.97239)"/><path d="M121.087 240.822c-.42.082-.768.26-1.14.389.218.235.378.472.493.56 1.608.214 3.561.805 4.465 1.806.47-.124 1.283-.404 1.972-.577-.876-1.549-4.012-1.895-5.79-2.178zM125.95 239.384c2.031.45 4.122 1.212 4.374 2.64.327-.117.81-.28 1.078-.376.44-1.704-2.17-2.447-3.8-2.747-.529.127-1.13.345-1.651.483z" style="opacity:.998;fill:#6cbbff;fill-opacity:1;stroke:#6cbbff;stroke-width:.0381979;stroke-linecap:round;stroke-linejoin:round;stroke-opacity:1" transform="translate(-111.992 -212.864) scale(.97239)"/><path d="M129.103 228.48c.67.148 1.56.296 2.276.468.053-.977-1.472-1.567-2.276-.468z" style="opacity:.998;fill:#fbe35a;fill-opacity:1;stroke:#fbe35a;stroke-width:.0381979;stroke-linecap:round;stroke-linejoin:round;stroke-opacity:1" transform="translate(-111.992 -212.864) scale(.97239)"/><path d="M130.247 227.073c-.889.002-1.84.527-2.136 1.228.027-.022.41.09.39.07.603-.982 1.544-1.09 2.532-.811.706.233 1.06.927.958 1.485-.054.061.435.15.396.106.16-1.228-.822-2.081-2.14-2.078z" style="opacity:.998;fill:#fb0;fill-opacity:.764706;stroke:#fb0;stroke-width:.0381979;stroke-linecap:round;stroke-linejoin:round;stroke-opacity:1" transform="translate(-111.992 -212.864) scale(.97239)"/><path d="M127.194 228.08s.277.135.379.062c.863-1.876 3.796-2.007 5.119-.432.281.426.443 1.044.325 1.495-.016.118.372.153.372.153.442-1.501-1.014-2.941-2.72-3.02-2.834-.216-3.56 1.688-3.475 1.742z" style="opacity:.998;fill:#ff7c40;fill-opacity:1;stroke:#ff7c40;stroke-width:.013505;stroke-linecap:round;stroke-linejoin:round;stroke-opacity:1" transform="translate(-111.992 -212.864) scale(.97239)"/><path d="M136.942 230.371c1.196.341 2.845.986 3.738 1.466-.181-.761-.6-1.685-1.144-1.822-.295-.074-2.163.15-2.594.356z" style="opacity:.998;fill:#b6ff62;fill-opacity:.835294;stroke:#b6ff62;stroke-width:.013505;stroke-linecap:round;stroke-linejoin:round;stroke-opacity:1" transform="translate(-111.992 -212.864) scale(.97239)"/><path d="M134 238.585c1.178 1.099.792 1.615.841 1.948 1.72-.55 3.864-1.435 5.262-2.218-.931-2.128-4.197.16-6.103.27z" style="opacity:.998;fill:#96d036;fill-opacity:.929412;stroke:#96d136;stroke-width:.00954945;stroke-linecap:round;stroke-linejoin:round;stroke-opacity:1" transform="translate(-111.992 -212.864) scale(.97239)"/><path d="M125.796 237.21c-2.61.79-5.344 1.625-7.68 2.334.422.173 1.829.602 2.262.775 1.179-.31 2.484-.773 4.307-1.271.392-.49.73-1.262 1.111-1.839z" style="opacity:.998;fill:#b0f;fill-opacity:.619608;stroke:#b0f;stroke-width:.0381979;stroke-linecap:round;stroke-linejoin:round;stroke-opacity:1" transform="translate(-111.992 -212.864) scale(.97239)"/><path d="M128.76 238.552c.353 0 3.814.919 3.435 2.841.41-.122 1.299-.463 1.537-.524 1.164-2.098-2.472-2.74-3.38-2.885-.987.308-.927.333-1.592.568z" style="opacity:.998;fill:#cfb283;fill-opacity:.909804;stroke:#d0b283;stroke-width:.013505;stroke-linecap:round;stroke-linejoin:round;stroke-opacity:1" transform="translate(-111.992 -212.864) scale(.97239)"/><path d="M118.77 226.558c.826.173 3.931.737 5.136.929-.637-.8-1.006-1.537-1.996-2.054-.76-.246-2.557.833-3.14 1.125z" style="opacity:.998;fill:#b5ff62;fill-opacity:.854902;stroke:#b5ff62;stroke-width:.0190989;stroke-linecap:round;stroke-linejoin:round;stroke-opacity:1" transform="translate(-111.992 -212.864) scale(.97239)"/><path d="M132.191 237.449c.313.24.786.524 1.155.587 1.889-.082 3.62-1.33 5.312-1.261.807-.025 1.495.13 2.156 1.135.245-.154.417-.253.754-.474-.267-.872-.831-2.466-1.84-2.445-2.3.295-5.457 1.84-7.537 2.458z" style="opacity:.998;fill:#95f257;fill-opacity:.854902;stroke:#95f256;stroke-width:.013505;stroke-linecap:round;stroke-linejoin:round;stroke-opacity:1" transform="translate(-111.992 -212.864) scale(.97239)"/><path d="m120.477 235.437 1.38 2.686 1.63-.532z" style="fill:#fbe35a;fill-opacity:1;stroke:#fbe35a;stroke-width:.0428763px;stroke-linecap:butt;stroke-linejoin:miter;stroke-opacity:1" transform="translate(-111.992 -212.864) scale(.97239)"/><path d="m120.162 235.48 1.377 2.709-1.675.518z" style="fill:#ff7c40;fill-opacity:1;stroke:#ff7c40;stroke-width:.0428763px;stroke-linecap:butt;stroke-linejoin:miter;stroke-opacity:1" transform="translate(-111.992 -212.864) scale(.97239)"/><path d="m126.053 227.941.533.087c.435-1.234 2.299-2.535 4.574-2.055 3.56.942 2.865 3.255 2.758 3.533l.507.148c.53-1.646-.327-2.493-1.292-3.338l-3.806-.8c-2.805.682-3.004 2.146-3.274 2.425z" style="fill:#f46154;fill-opacity:1;stroke:#f46154;stroke-width:.0428763px;stroke-linecap:butt;stroke-linejoin:miter;stroke-opacity:1" transform="translate(-111.992 -212.864) scale(.97239)"/><path d="M131.388 218.942c.071.686.43 2.045.536 2.837-.5.087-1.374.214-1.902.236a14.46 14.46 0 0 0-.39-.629.249.249 0 0 0-.308.03c.077.274.24.558.219.872.01.279-.118.46-.195.762.038.054.032.112.203.113.164-.157.302-.523.452-.687.388.066 1.636.267 1.914.31-.193 1.03-.498 2.085-.64 2.898.223.05.114.031.438.065.609-.865 1.452-2.043 1.988-2.7.61-.015 2.151-.06 2.126-.735-.26-.727-1.806-.606-2.17-.675-.28-.386-1.615-2.417-1.808-2.713-.14-.02-.322.017-.463.016z" style="opacity:.998;fill:#95eeff;fill-opacity:1;stroke:#95eeff;stroke-width:.0236912;stroke-linecap:round;stroke-linejoin:round;stroke-opacity:1" transform="translate(-111.992 -212.864) scale(.97239)"/><path d="M139.41 234.4c.747.122 1.974-.218 2.865 2.536.501-.571 1.093-1.038 1.284-1.966-.188-1.686-.559-3.23-1.272-4.512.374 1.276-.363 2.565-2.876 3.942z" style="fill:url(#e);fill-opacity:1;stroke:url(#linearGradient938-0-1);stroke-width:.0428763px;stroke-linecap:butt;stroke-linejoin:miter;stroke-opacity:1" transform="translate(-111.992 -212.864) scale(.97239)"/><path d="M141.733 232.52c.492-.502.552-.933.566-1.387-.245-2.585-4.621-3.47-8.258-4.654.759 1.07 1.364 2.218.765 3.264l.858.27c4.448-1.62 5.428-.174 5.908 1.61z" style="fill:url(#f);fill-opacity:1;stroke:url(#linearGradient974-0-6);stroke-width:.0428763px;stroke-linecap:butt;stroke-linejoin:miter;stroke-opacity:1" transform="translate(-111.992 -212.864) scale(.97239)"/><path d="M128.34 225.349c-1.687.659-2.351 1.558-2.74 2.538l-.646-.12c-2.83-5.407-5.017-2.18-7.368-1.424-4.674-.965-1.54-1.956 1.275-3.076 2.852-.773 6.204-.8 9.392-.927l-.035.282c-.984-.034-6.443.376-8.59 1.048.337.45 5.724 1.172 8.712 1.679z" style="fill:url(#g);fill-opacity:1;stroke:url(#linearGradient1012-4-5);stroke-width:.0428763px;stroke-linecap:butt;stroke-linejoin:miter;stroke-opacity:1" transform="translate(-111.992 -212.864) scale(.97239)"/><path d="M123.57 244.828a3.75.403 0 0 1 2.823.482 3.75.403 0 0 1-4.47.305 3.75.403 0 0 1-2.854-.48 3.75.403 0 0 1 4.452-.308" style="opacity:.998;fill:url(#h);fill-opacity:1;stroke:none;stroke-width:.0422381;stroke-linecap:round;stroke-linejoin:round;stroke-opacity:1" transform="translate(-111.992 -212.864) scale(.97239)"/><text xml:space="preserve" x="145.041" y="230.884" style="font-style:normal;font-variant:normal;font-weight:400;font-stretch:normal;font-size:10.5833px;line-height:1.25;font-family:&quot;Bad Script&quot;;-inkscape-font-specification:&quot;Bad Script&quot;;stroke-width:.264583" transform="translate(-111.992 -212.864) scale(.97239)"><tspan x="145.041" y="230.884" style="font-style:normal;font-variant:normal;font-weight:400;font-stretch:normal;font-family:&quot;Bad Script&quot;;-inkscape-font-specification:&quot;Bad Script&quot;;stroke-width:.264583">ul</tspan></text><text xml:space="preserve" x="147.082" y="243.319" style="font-style:normal;font-variant:normal;font-weight:400;font-stretch:normal;font-size:10.5833px;line-height:1.25;font-family:&quot;Bad Script&quot;;-inkscape-font-specification:&quot;Bad Script&quot;;stroke-width:.264583" transform="translate(-111.992 -212.864) scale(.97239)"><tspan x="147.082" y="243.319" style="font-style:normal;font-variant:normal;font-weight:400;font-stretch:normal;font-family:&quot;Bad Script&quot;;-inkscape-font-specification:&quot;Bad Script&quot;;stroke-width:.264583">América</tspan></text><text xml:space="preserve" x="126.918" y="251.505" style="font-style:normal;font-variant:normal;font-weight:400;font-stretch:normal;font-size:5.29167px;line-height:1.25;font-family:Gruppo;-inkscape-font-specification:Gruppo;letter-spacing:2.38125px;stroke-width:.264583" transform="translate(-111.992 -212.864) scale(.97239)"><tspan x="126.918" y="251.505" style="font-style:normal;font-variant:normal;font-weight:400;font-stretch:normal;font-size:5.29167px;font-family:Gruppo;-inkscape-font-specification:Gruppo;stroke-width:.264583">TURISMO</tspan></text></svg>